PathFileType	4	(X/Y/Z)	/Users/itak/Documents/Research/Walk-IL/dataset/trc/00288_00010.trc
DataRate	CameraRate	NumFrames	NumMarkers	Units	OrigDataRate	OrigDataStartFrame	OrigNumFrames
100.000000	100.000000	4	53	mm	100.000000	167	669
Frame#	Time	RPSI			LPSI			L3			STRN			T10			C7			CLAV			RBAK			LBAK			LSHO			LUPA			LAEL			LAOL			LWTS			LWPS			LFRA			LHPS			LHTS			RSHO			RUPA			RAEL			RAOL			RWTS			RWPS			RFRA			RIFD			RHPS			RBHD			LFHD			RFHD			LBHD			RHIP			RASI			LASI			LKNE			LTHI			LANK			LTIP			LTOE			LMT1			LMT5			LHEE			RKNE			RTHI			RANK			RTIP			RTOE			RMT1			RMT5			RHEE			LIFD			RHTS			LHIP			
		X1	Y1	Z1	X2	Y2	Z2	X3	Y3	Z3	X4	Y4	Z4	X5	Y5	Z5	X6	Y6	Z6	X7	Y7	Z7	X8	Y8	Z8	X9	Y9	Z9	X10	Y10	Z10	X11	Y11	Z11	X12	Y12	Z12	X13	Y13	Z13	X14	Y14	Z14	X15	Y15	Z15	X16	Y16	Z16	X17	Y17	Z17	X18	Y18	Z18	X19	Y19	Z19	X20	Y20	Z20	X21	Y21	Z21	X22	Y22	Z22	X23	Y23	Z23	X24	Y24	Z24	X25	Y25	Z25	X26	Y26	Z26	X27	Y27	Z27	X28	Y28	Z28	X29	Y29	Z29	X30	Y30	Z30	X31	Y31	Z31	X32	Y32	Z32	X33	Y33	Z33	X34	Y34	Z34	X35	Y35	Z35	X36	Y36	Z36	X37	Y37	Z37	X38	Y38	Z38	X39	Y39	Z39	X40	Y40	Z40	X41	Y41	Z41	X42	Y42	Z42	X43	Y43	Z43	X44	Y44	Z44	X45	Y45	Z45	X46	Y46	Z46	X47	Y47	Z47	X48	Y48	Z48	X49	Y49	Z49	X50	Y50	Z50	X51	Y51	Z51	X52	Y52	Z52	X53	Y53	Z53	

168	1.67	-316.559814453125	964.3881225585938	490.5976867675781	-488.8655090332031	967.2310791015625	526.4415283203125	-402.9494934082031	1023.178955078125	492.8672485351562	-478.6237487792969	1212.259399414062	279.1363220214844	-393.7262268066406	1129.400634765625	523.1190795898438	-430.8510437011719	1376.967041015625	511.8279418945312	-468.2358093261719	1306.6591796875	350.5850830078125	-337.3624267578125	1240.409790039062	523.7443237304688	-522.1698608398438	1330.479248046875	553.3575439453125	-601.2019653320312	1339.2001953125	483.4712219238281	-653.8900756835938	1224.05615234375	546.1249389648438	-655.7098388671875	1026.490600585938	578.7794189453125	-571.047119140625	1016.778137207031	597.862548828125	-647.0704956054688	786.1456909179688	551.3287963867188	-680.3346557617188	791.664306640625	612.8206176757812	-667.61279296875	923.314208984375	598.3308715820312	-673.1367797851562	708.1626586914062	639.1014404296875	-665.4004516601562	685.7689208984375	576.7805786132812	-297.2603759765625	1371.852294921875	401.6194152832031	-228.9589233398438	1316.875732421875	384.2172546386719	-177.0350189208984	1050.819580078125	361.2701721191406	-250.2810516357422	1039.657104492188	418.6180114746094	-284.3846130371094	854.6737670898438	249.1913909912109	-201.9407043457031	835.9816284179688	264.3031005859375	-178.7069702148438	986.5490112304688	325.1043090820312	-308.7509765625	678.6930541992188	199.6846160888672	-226.9994506835938	735.3803100585938	219.2118835449219	-379.9716186523438	1532.158935546875	504.0333251953125	-485.7549743652344	1592.745849609375	329.1837768554688	-393.2948303222656	1580.920532226562	334.4456176757812	-526.326416015625	1541.6376953125	493.6717224121094	-234.3504791259766	899.2876586914062	378.0252990722656	-329.7353820800781	906.4066162109375	273.732666015625	-576.3926391601562	929.3314819335938	330.3902282714844	-636.4411010742188	503.4170837402344	245.9654388427734	-643.99609375	632.4078369140625	313.6107788085938	-666.9096069335938	39.99718856811523	278.5505981445312	-664.0215454101562	270.643310546875	253.2361907958984	-574.2556762695312	55.21997833251953	87.07314300537109	-544.2545776367188	44.20815658569336	161.0371856689453	-657.53271484375	40.35577011108398	156.5681915283203	-615.9616088867188	39.88980102539062	333.4076538085938	-307.8998413085938	437.51318359375	470.468017578125	-271.9158935546875	680.0137329101562	365.6918029785156	-265.2319030761719	121.3124923706055	799.2371826171875	-311.1942138671875	330.5520629882812	541.0266723632812	-431.8541870117188	42.42802429199219	755.09521484375	-418.095947265625	74.10920715332031	799.1541748046875	-318.5084228515625	43.82339859008789	746.098388671875	-272.4005432128906	170.4896240234375	849.61962890625	-633.7745971679688	611.4583129882812	615.991455078125	-289.8415222167969	750.493408203125	189.9155578613281	-599.724609375	929.5355834960938	474.9647827148438	
169	1.68	-320.3954467773438	965.5107421875	482.880859375	-493.2369995117188	969.68408203125	515.7479248046875	-406.9129638671875	1025.672729492188	483.3862609863281	-479.251953125	1214.672729492188	267.808349609375	-398.2642822265625	1131.749267578125	513.2977294921875	-435.9808044433594	1379.016845703125	501.5545349121094	-470.3666076660156	1309.0791015625	339.6442260742188	-342.0810546875	1242.901489257812	514.7877197265625	-527.9595947265625	1332.1875	541.3413696289062	-605.6382446289062	1340.860717773438	470.0946044921875	-659.9111328125	1225.471435546875	530.9720458984375	-663.1063842773438	1027.688842773438	562.0316772460938	-578.8807983398438	1017.619934082031	583.1333618164062	-654.8932495117188	787.5810546875	532.1860961914062	-689.36376953125	792.6187744140625	593.1888427734375	-675.728271484375	924.2622680664062	580.3722534179688	-683.3787841796875	708.8147583007812	618.5316162109375	-674.6223754882812	687.2882690429688	556.0379638671875	-300.6579284667969	1374.895263671875	393.5022277832031	-231.7279357910156	1320.397827148438	377.0302429199219	-178.8185729980469	1054.496337890625	355.5874633789062	-253.0735321044922	1043.554321289062	411.9795837402344	-278.2107849121094	851.1061401367188	247.7860412597656	-195.3991394042969	836.282958984375	265.5330505371094	-178.4401397705078	989.3926391601562	321.257568359375	-293.442138671875	671.8168334960938	205.7779693603516	-214.8532867431641	732.9990234375	224.2256927490234	-385.09375	1534.474609375	494.8074951171875	-488.5563354492188	1594.637329101562	318.4327392578125	-396.1447143554688	1582.968383789062	324.9561767578125	-531.3165893554688	1543.740966796875	482.3911437988281	-236.7871551513672	900.3775634765625	371.4754333496094	-330.7774658203125	908.6093139648438	265.8957824707031	-578.0581665039062	931.64404296875	318.6402893066406	-637.415771484375	502.5955200195312	240.2982025146484	-645.7183227539062	632.2677001953125	306.0303344726562	-666.8928833007812	40.21311569213867	278.3802185058594	-664.4013671875	270.1950073242188	250.4419708251953	-573.3275756835938	53.68963623046875	86.96420288085938	-543.7445678710938	43.48336410522461	161.1520690917969	-657.1572265625	40.38339996337891	156.4668731689453	-616.0368041992188	40.0385856628418	333.3655090332031	-310.4022216796875	436.661376953125	453.0960083007812	-274.0759582519531	681.2071533203125	354.9130554199219	-269.8563232421875	130.1192626953125	790.511474609375	-312.6204833984375	331.5641479492188	525.292236328125	-432.6964416503906	41.56851959228516	751.031005859375	-420.8067016601562	78.40335845947266	791.6143798828125	-319.4622802734375	46.3180046081543	743.5625610351562	-279.6682739257812	181.9093017578125	837.0770874023438	-644.23583984375	612.0245971679688	594.9840087890625	-277.9075317382812	743.9154052734375	193.2491302490234	-603.401123046875	932.6218872070312	462.8229675292969	
170	1.69	-324.2267150878906	966.5568237304688	475.7623596191406	-497.5895690917969	972.1126098632812	505.3815612792969	-410.9034118652344	1028.234619140625	474.33837890625	-479.52685546875	1216.931396484375	256.6019592285156	-402.8837585449219	1134.266235351562	503.7403869628906	-440.9321594238281	1381.230102539062	491.1408081054688	-472.1895141601562	1311.425048828125	328.6772766113281	-346.7345886230469	1245.523193359375	505.9662170410156	-533.5675048828125	1334.177124023438	529.1829833984375	-609.832275390625	1342.715209960938	456.4857788085938	-665.789794921875	1227.1181640625	515.5128173828125	-670.4552001953125	1029.10302734375	544.8880615234375	-586.8091430664062	1018.644958496094	568.1369018554688	-662.7028198242188	789.2704467773438	512.4285888671875	-698.327392578125	793.7981567382812	572.9963989257812	-683.7874145507812	925.4259033203125	561.949462890625	-693.580078125	709.6583251953125	597.2415161132812	-683.8507080078125	689.1228637695312	534.5994873046875	-303.840087890625	1377.84375	385.3336791992188	-234.3314514160156	1323.797729492188	369.8816833496094	-179.9441528320312	1058.170288085938	350.0844421386719	-255.1333770751953	1047.3349609375	405.6614685058594	-271.7342224121094	848.2714233398438	246.7697448730469	-188.7058258056641	837.33203125	266.6558532714844	-177.6912078857422	992.4986572265625	317.4939270019531	-278.2965087890625	666.3013916015625	212.9077911376953	-202.8890380859375	731.708984375	229.4744110107422	-390.0167846679688	1536.788818359375	485.4811401367188	-491.1432189941406	1596.652465820312	307.6577758789062	-398.7978820800781	1585.175537109375	315.4595947265625	-536.0770263671875	1545.756591796875	470.9941711425781	-239.3027191162109	901.3682861328125	365.5126342773438	-331.5785522460938	910.74462890625	258.5206298828125	-579.4760131835938	933.8842163085938	307.1793823242188	-637.9332885742188	501.7928161621094	235.0625915527344	-647.0550537109375	632.115966796875	298.8188781738281	-666.7361450195312	40.51081848144531	278.2230224609375	-664.4671630859375	269.7490234375	247.9319763183594	-572.2612915039062	52.17647552490234	86.85755157470703	-543.10693359375	42.65623092651367	161.2785949707031	-656.6412963867188	40.50687789916992	156.3486633300781	-615.997314453125	40.16987228393555	333.3323364257812	-312.6988525390625	435.984375	435.06982421875	-275.8504028320312	682.5119018554688	344.3280029296875	-274.8795471191406	139.4930725097656	780.2337646484375	-314.3269958496094	332.69189453125	508.5375366210938	-433.6224060058594	40.50321197509766	745.477783203125	-423.7901916503906	82.80211639404297	782.539306640625	-320.5329895019531	50.01245498657227	739.89013671875	-287.4268493652344	193.441162109375	822.975830078125	-654.7307739257812	612.789794921875	573.053955078125	-266.060546875	738.4163208007812	197.2792358398438	-606.9541015625	935.5620727539062	450.9220275878906	
171	1.7	-328.00048828125	967.5021362304688	469.1384582519531	-501.8423767089844	974.47119140625	495.3440246582031	-414.8674621582031	1030.781005859375	465.6754455566406	-479.47265625	1218.970703125	245.5575256347656	-407.5514526367188	1136.923095703125	494.4417114257812	-445.6952819824219	1383.58935546875	480.6040344238281	-473.71044921875	1313.637084960938	317.7052917480469	-351.3136291503906	1248.265014648438	497.2979736328125	-538.9791870117188	1336.424072265625	516.89404296875	-613.7674560546875	1344.730224609375	442.6735229492188	-671.4797973632812	1228.98046875	499.7702941894531	-677.7374267578125	1030.706420898438	527.3700561523438	-594.8572387695312	1019.813049316406	552.8629760742188	-670.4620971679688	791.2002563476562	492.0824279785156	-707.2021484375	795.1897583007812	552.2612915039062	-691.7709350585938	926.801513671875	543.065673828125	-703.7044677734375	710.6956787109375	575.2745971679688	-693.0330810546875	691.233154296875	512.51123046875	-306.8086547851562	1380.6669921875	377.1218872070312	-236.7780456542969	1327.042114257812	362.7871704101562	-180.4465637207031	1061.807983398438	344.876708984375	-256.5032043457031	1050.968627929688	399.7347717285156	-265.031005859375	846.1614379882812	246.1439971923828	-181.9147186279297	839.0181884765625	267.6749572753906	-176.4491271972656	995.7969970703125	313.9125061035156	-263.5603942871094	662.1982421875	220.7781677246094	-191.271240234375	731.4656372070312	234.8363037109375	-394.7206420898438	1539.058837890625	476.0529174804688	-493.4832458496094	1598.769287109375	296.8585205078125	-401.232666015625	1587.496337890625	305.9542541503906	-540.5809936523438	1547.682250976562	459.4851684570312	-241.90185546875	902.196533203125	360.0142517089844	-332.15673828125	912.7369384765625	251.5439910888672	-580.6513671875	936.010498046875	296.0221557617188	-638.09423828125	501.0782470703125	230.0978393554688	-648.0930786132812	632.0947265625	291.7733154296875	-666.4750366210938	40.85173034667969	278.0787048339844	-664.3031005859375	269.326904296875	245.5784454345703	-571.1654052734375	50.69845581054688	86.72550964355469	-542.4097900390625	41.78609466552734	161.3949737548828	-656.0615844726562	40.67241668701172	156.2121124267578	-615.8702392578125	40.29868698120117	333.3014526367188	-314.866455078125	435.5782470703125	416.4905090332031	-277.2979125976562	683.9033203125	333.9757080078125	-280.317626953125	149.3179016113281	768.4061889648438	-316.3758239746094	333.9689025878906	490.8040161132812	-434.4755859375	39.32083511352539	738.01708984375	-427.0068359375	87.09873199462891	771.5750122070312	-321.7453002929688	54.90321350097656	734.7984619140625	-295.7656555175781	204.9578704833984	807.4113159179688	-665.2214965820312	613.7875366210938	550.270263671875	-254.4520416259766	734.044189453125	201.8155822753906	-610.3460083007812	938.3011474609375	439.2832946777344	
